<?xml version="1.0" encoding="utf-8"?>
<!-- Generator: Adobe Illustrator 18.0.0, SVG Export Plug-In . SVG Version: 6.00 Build 0)  -->
<!DOCTYPE svg PUBLIC "-//W3C//DTD SVG 1.1//EN" "http://www.w3.org/Graphics/SVG/1.1/DTD/svg11.dtd">
<svg version="1.1" id="图层_1" xmlns="http://www.w3.org/2000/svg" xmlns:xlink="http://www.w3.org/1999/xlink" x="0px" y="0px"
	 viewBox="0 0 1024 1024" enable-background="new 0 0 1024 1024" xml:space="preserve">
<g>
	<path fill="#C6C6C6" d="M63.6,63.2v897h901v-897H63.6z M878.3,867.8v19.5H771.5l16.8-0.2H603.5v0h-19l-29.9,0.2H149.8v-19.5
		c0,0-8.8-108.9,151.5-136.7c0,0,122-16.5,130.6-50c0,0,4.7-3.7,1.2-42.7c-7.3-83-61.6-122.1-83.6-153.8
		c-22-31.7-23.8-68.4-23.8-68.4c0-9.2,3.8-12.5,10.2-18.4c7.9-7.3,5.5-15,4-23.2c-5.7-31.1-6.2-81-0.8-112.2
		c1.2-37.2,35.4-67.1,35.4-67.1c6.4-5.4,12.8-11.4,17.3-18.6c1.3-2,2.4-4.1,3.1-6.4c2.6-8.6-6.1-14.9-4.4-24
		c1.6-8.2,15.7-8.6,24.2-9.1c19.2-1,38.5-1.8,57.6-0.3c143.4,11,190.5,63.8,190.5,63.8c11.2,13.4,18.5,29.7,22.9,46.5
		c1.3,5,2.5,10.1,3.1,15.3c4.5,25.7,4.5,52.4,3.1,78.4c-0.7,12.4-2.1,24.5-3.9,36.8c-0.9,6.4-0.5,12.4,3.8,17.5
		c3.6,4.3,7.7,7.3,9.4,12.9c0.8,2.6,1,5.5,1,8.2c0,0-1.8,36.6-23.8,68.3c-22,31.7-76.3,70.8-83.6,153.8c-3.4,39,1.2,42.7,1.2,42.7
		c8.5,33.6,130.6,50,130.6,50C888.9,761.2,878.3,867.8,878.3,867.8L878.3,867.8z M878.3,867.8"/>
</g>
</svg>
